<svg viewBox="0 0 720 242" xmlns="http://www.w3.org/2000/svg" role="img" aria-label="Language Distribution">
<style>
  .bg       { fill: #ffffff; stroke: #e1e4e8; stroke-width: 1; }
  .fg       { fill: #24292f; }
  .muted    { fill: #57606a; }
  .line     { stroke: #d0d7de; }
  .node     { fill: #f6f8fa; stroke: #d0d7de; }
  .node-txt { fill: #0969da; font-weight: 600; }
  .accent   { fill: #0969da; }
  .bar-bg   { fill: #eaeef2; }
  @media (prefers-color-scheme: dark) {
    .bg       { fill: #0d1117; stroke: #30363d; stroke-width: 1; }
    .fg       { fill: #f0f6fc; }
    .muted    { fill: #8b949e; }
    .line     { stroke: #30363d; }
    .node     { fill: #161b22; stroke: #30363d; }
    .node-txt { fill: #58a6ff; font-weight: 600; }
    .accent   { fill: #58a6ff; }
    .bar-bg   { fill: #21262d; }
  }
  text { font-family: -apple-system, BlinkMacSystemFont, 'Segoe UI', 'Noto Sans', Helvetica, Arial, sans-serif; }
</style>
<rect class="bg" x="1" y="1" width="718" height="240" rx="12"/>
<text x="24" y="32" class="fg" font-size="14" font-weight="700">Repository Language Breakdown</text>
<g clip-path="url(#bar-clip)">
<clipPath id="bar-clip"><rect x="24" y="52" width="672" height="14" rx="7"/></clipPath>
<rect x="24.0" y="52" width="237.9" height="14" fill="#F1E05A"/>
<rect x="261.9" y="52" width="166.0" height="14" fill="#E34C26"/>
<rect x="427.9" y="52" width="162.6" height="14" fill="#3178C6"/>
<rect x="590.5" y="52" width="65.2" height="14" fill="#178600"/>
<rect x="655.7" y="52" width="18.8" height="14" fill="#F34B7D"/>
<rect x="674.5" y="52" width="12.1" height="14" fill="#3572A5"/>
<rect x="686.6" y="52" width="9.4" height="14" fill="#563D7C"/>
</g>
<rect class="node" x="24.0" y="90" width="326.0" height="28" rx="6" stroke-width="1"/>
<circle cx="38.0" cy="104" r="5" fill="#F1E05A"/>
<text x="52.0" y="108" class="fg" font-size="12" font-weight="600">JavaScript</text>
<text x="338.0" y="108" text-anchor="end" class="muted" font-size="11.5" font-weight="600">35.4%</text>
<rect class="node" x="370.0" y="90" width="326.0" height="28" rx="6" stroke-width="1"/>
<circle cx="384.0" cy="104" r="5" fill="#E34C26"/>
<text x="398.0" y="108" class="fg" font-size="12" font-weight="600">HTML</text>
<text x="684.0" y="108" text-anchor="end" class="muted" font-size="11.5" font-weight="600">24.7%</text>
<rect class="node" x="24.0" y="128" width="326.0" height="28" rx="6" stroke-width="1"/>
<circle cx="38.0" cy="142" r="5" fill="#3178C6"/>
<text x="52.0" y="146" class="fg" font-size="12" font-weight="600">TypeScript</text>
<text x="338.0" y="146" text-anchor="end" class="muted" font-size="11.5" font-weight="600">24.2%</text>
<rect class="node" x="370.0" y="128" width="326.0" height="28" rx="6" stroke-width="1"/>
<circle cx="384.0" cy="142" r="5" fill="#178600"/>
<text x="398.0" y="146" class="fg" font-size="12" font-weight="600">C#</text>
<text x="684.0" y="146" text-anchor="end" class="muted" font-size="11.5" font-weight="600">9.7%</text>
<rect class="node" x="24.0" y="166" width="326.0" height="28" rx="6" stroke-width="1"/>
<circle cx="38.0" cy="180" r="5" fill="#F34B7D"/>
<text x="52.0" y="184" class="fg" font-size="12" font-weight="600">C++</text>
<text x="338.0" y="184" text-anchor="end" class="muted" font-size="11.5" font-weight="600">2.8%</text>
<rect class="node" x="370.0" y="166" width="326.0" height="28" rx="6" stroke-width="1"/>
<circle cx="384.0" cy="180" r="5" fill="#3572A5"/>
<text x="398.0" y="184" class="fg" font-size="12" font-weight="600">Python</text>
<text x="684.0" y="184" text-anchor="end" class="muted" font-size="11.5" font-weight="600">1.8%</text>
<rect class="node" x="24.0" y="204" width="326.0" height="28" rx="6" stroke-width="1"/>
<circle cx="38.0" cy="218" r="5" fill="#563D7C"/>
<text x="52.0" y="222" class="fg" font-size="12" font-weight="600">CSS</text>
<text x="338.0" y="222" text-anchor="end" class="muted" font-size="11.5" font-weight="600">1.4%</text>
</svg>